<svg width="400" height="300" viewBox="0 0 400 300" fill="none" xmlns="http://www.w3.org/2000/svg">
<rect width="400" height="300" rx="15" fill="#FFEFD5"/>
<circle cx="100" cy="100" r="40" fill="orange"/>
<circle cx="300" cy="100" r="40" fill="red"/>
<rect x="70" y="150" width="60" height="100" rx="10" fill="orange"/>
<rect x="270" y="150" width="60" height="100" rx="10" fill="red"/>
<path d="M150 180C170 160 230 160 250 180L200 250L150 180Z" fill="yellow"/>
<path d="M150 180C170 160 230 160 250 180" stroke="#E53E3E" stroke-width="5" stroke-linecap="round"/>
<path d="M170 100C180 80 220 80 230 100" stroke="#FFD700" stroke-width="5" stroke-linecap="round"/>
<circle cx="200" cy="200" r="20" fill="white"/>
<path d="M200 200L220 220M200 200L180 220" stroke="orange" stroke-width="3" stroke-linecap="round"/>
</svg>