<svg width="200" height="200" viewBox="0 0 200 200" fill="none" xmlns="http://www.w3.org/2000/svg">
<rect width="200" height="200" fill="white"/>
<path d="M100 180C144.183 180 180 144.183 180 100C180 55.8172 144.183 20 100 20C55.8172 20 20 55.8172 20 100C20 144.183 55.8172 180 100 180Z" fill="#FFEFD5" stroke="orange" stroke-width="4"/>
<path d="M100 160C127.614 160 150 137.614 150 110C150 82.3858 127.614 60 100 60C72.3858 60 50 82.3858 50 110C50 137.614 72.3858 160 100 160Z" fill="red" stroke="red" stroke-width="2"/>
<circle cx="80" cy="100" r="8" fill="white"/>
<circle cx="120" cy="100" r="8" fill="white"/>
<circle cx="100" cy="80" r="8" fill="white"/>
<circle cx="100" cy="120" r="8" fill="white"/>
<path d="M100 110L110 120L100 130L90 120L100 110Z" fill="yellow" stroke="yellow" stroke-width="2"/>
</svg>